<mxfile host="app.diagrams.net" modified="2024-04-07T16:23:34.200Z" agent="Mozilla/5.0 (Windows NT 10.0; Win64; x64) AppleWebKit/537.36 (KHTML, like Gecko) Chrome/123.0.0.0 Safari/537.36" version="24.2.2" etag="TcZcusNtm9TrY2m00QfW" type="github">
  <diagram name="Page-1" id="74yGzI3Gxx3nxTHTDr0C">
    <mxGraphModel>
      <root>
        <mxCell id="0" />
        <mxCell id="1" parent="0" />
      </root>
    </mxGraphModel>
  </diagram>
</mxfile>
